<svg version="1.1" id="Capa_1" xmlns="http://www.w3.org/2000/svg" xmlns:xlink="http://www.w3.org/1999/xlink" x="0px" y="0px"
	 width="485.211px" height="485.211px" viewBox="0 0 485.211 485.211" style="enable-background:new 0 0 485.211 485.211;"
	 xml:space="preserve">
<g>
	<g>
		<path d="M318.423,303.258c11.696,0,22.271-4.56,30.322-11.817c8.056,7.258,18.631,11.817,30.331,11.817
			c25.109,0,45.485-20.376,45.485-45.485c0-25.114-20.376-45.49-45.485-45.49c-11.7,0-22.275,4.562-30.331,11.815
			c-8.051-7.252-18.626-11.815-30.322-11.815c-25.118,0-45.49,20.376-45.49,45.49C272.933,282.882,293.305,303.258,318.423,303.258z
			"/>
		<path d="M454.889,60.651H90.978c-16.762,0-30.327,13.565-30.327,30.327v90.978h30.327h151.629h212.282v151.629H212.282v30.321
			h242.606c16.759,0,30.322-13.562,30.322-30.321V90.978C485.211,74.216,471.647,60.651,454.889,60.651z M454.889,121.305H90.978
			V90.978h363.911V121.305z"/>
		<path d="M151.628,303.258v-30.327c0-33.435-27.186-60.648-60.651-60.648s-60.651,27.214-60.651,60.648v30.327
			C13.562,303.258,0,316.82,0,333.585v60.652c0,16.76,13.564,30.322,30.327,30.322h121.302c16.764,0,30.327-13.562,30.327-30.322
			v-60.652C181.955,316.82,168.393,303.258,151.628,303.258z M106.139,373.03v13.623H75.816V373.03
			c-4.592-4.177-7.584-10.011-7.584-16.698c0-12.563,10.19-22.747,22.745-22.747s22.745,10.184,22.745,22.747
			C113.723,363.02,110.731,368.854,106.139,373.03z M121.304,303.258H60.651v-30.327c0-16.731,13.623-30.324,30.327-30.324
			s30.327,13.593,30.327,30.324V303.258z"/>
	</g>
</g>
<g>
</g>
<g>
</g>
<g>
</g>
<g>
</g>
<g>
</g>
<g>
</g>
<g>
</g>
<g>
</g>
<g>
</g>
<g>
</g>
<g>
</g>
<g>
</g>
<g>
</g>
<g>
</g>
<g>
</g>
</svg>
