<?xml version="1.0" encoding="iso-8859-1"?>
<!-- Generator: Adobe Illustrator 19.0.0, SVG Export Plug-In . SVG Version: 6.00 Build 0)  -->
<svg version="1.1" id="Capa_1" xmlns="http://www.w3.org/2000/svg" xmlns:xlink="http://www.w3.org/1999/xlink" x="0px" y="0px"
	 viewBox="0 0 480.032 480.032" style="enable-background:new 0 0 480.032 480.032;" xml:space="preserve">
<g>
	<g>
		<path d="M460.016,72h-16V8c0-4.418-3.582-8-8-8h-48c-4.418,0-8,3.582-8,8v392c0.065,0.853,0.204,1.699,0.416,2.528l24,72
			c1.38,4.197,5.901,6.482,10.098,5.102c2.415-0.794,4.308-2.687,5.102-5.102l24-72c0.201-0.83,0.329-1.676,0.384-2.528V88h8v120
			c0,4.418,3.582,8,8,8s8-3.582,8-8V80C468.016,75.582,464.434,72,460.016,72z M412.016,446.704L399.12,408h25.792L412.016,446.704z
			 M428.016,392h-32V88h32V392z M428.016,72h-32V16h32V72z"/>
	</g>
</g>
<g>
	<g>
		<path d="M347.92,103.512c-0.046-0.709-0.186-1.408-0.416-2.08c-0.088-0.256-0.152-0.496-0.264-0.744
			c-0.389-0.87-0.931-1.664-1.6-2.344l-96-96c-0.674-0.672-1.466-1.214-2.336-1.6c-0.256-0.12-0.512-0.184-0.8-0.28
			c-0.652-0.221-1.329-0.355-2.016-0.4C244.36,0.096,244.2,0,244.016,0h-224c-4.418,0-8,3.582-8,8v464c0,4.418,3.582,8,8,8h320
			c4.418,0,8-3.582,8-8V104C348.016,103.832,347.928,103.68,347.92,103.512z M252.016,27.312L320.704,96h-68.688V27.312z
			 M332.016,464h-304V16h208v88c0,4.418,3.582,8,8,8h88V464z"/>
	</g>
</g>
<g>
	<g>
		<path d="M292.016,160H67.8c-4.418,0-8,3.582-8,8s3.582,8,8,8h224.216c4.418,0,8-3.582,8-8S296.434,160,292.016,160z"/>
	</g>
</g>
<g>
	<g>
		<path d="M292.016,208H67.8c-4.418,0-8,3.582-8,8s3.582,8,8,8h224.216c4.418,0,8-3.582,8-8S296.434,208,292.016,208z"/>
	</g>
</g>
<g>
	<g>
		<path d="M292.016,256H67.8c-4.418,0-8,3.582-8,8s3.582,8,8,8h224.216c4.418,0,8-3.582,8-8S296.434,256,292.016,256z"/>
	</g>
</g>
<g>
	<g>
		<path d="M292.016,304H67.8c-4.418,0-8,3.582-8,8s3.582,8,8,8h224.216c4.418,0,8-3.582,8-8S296.434,304,292.016,304z"/>
	</g>
</g>
<g>
</g>
<g>
</g>
<g>
</g>
<g>
</g>
<g>
</g>
<g>
</g>
<g>
</g>
<g>
</g>
<g>
</g>
<g>
</g>
<g>
</g>
<g>
</g>
<g>
</g>
<g>
</g>
<g>
</g>
</svg>
